<?xml version="1.0" encoding="UTF-8" standalone="no"?>
<svg
   version="1.1"
   width="242.30907"
   height="280.84625"
   viewBox="0 0 242.30907 280.84625"
   xml:space="preserve"
   id="svg74"
   xmlns="http://www.w3.org/2000/svg"
   xmlns:svg="http://www.w3.org/2000/svg">
<desc
   id="desc1">Created with Fabric.js 5.3.0</desc>
<defs
   id="defs1" />
<g
   transform="matrix(2.6395322,0,0,2.6395322,458.88267,140.42311)"
   id="cpDzIcb7UlOPhMhQFSLpM">
<g
   id="g74">
		
		
		
		
		
		
		
		
		
		
		
		
		
		
		
		
		
		
		
		
		
		
		
		
		
		
		
		
		
		
		
		
		
		<g
   id="g75"><g
     transform="translate(-127.95)"
     id="G2euzaoLnP4ubH90A77a1">
<path
   style="opacity:1;fill:#012c60;fill-rule:nonzero;stroke:none;stroke-width:1;stroke-linecap:butt;stroke-linejoin:miter;stroke-miterlimit:4;stroke-dasharray:none;stroke-dashoffset:0"
   transform="translate(-406.5,-270.2)"
   d="m 406.5,323.4 c -1.1,-4.2 -4.9,-7.1 -9.3,-7 l -19.1,0.5 c -9.6,0.3 -17.5,-7.4 -17.5,-17 V 217 h 91.8 v 82.9 c 0,9.6 -7.9,17.2 -17.5,17 l -19.1,-0.5 c -4.3,-0.2 -8.2,2.8 -9.3,7 z"
   stroke-linecap="round"
   id="path1" />
</g><g
     transform="translate(-128,-1.8)"
     id="qzYqL3gPfDh-b7Pa-M-58">
<path
   style="opacity:1;fill:#012c60;fill-rule:nonzero;stroke:none;stroke-width:1;stroke-linecap:butt;stroke-linejoin:miter;stroke-miterlimit:4;stroke-dasharray:none;stroke-dashoffset:0"
   transform="translate(-406.45,-268.4)"
   d="m 406.5,315.7 c -2.4,-2.2 -5.6,-3.5 -9,-3.5 h -0.4 l -19.1,0.5 h -0.4 c -3.4,0 -6.6,-1.3 -9.1,-3.8 -2.4,-2.4 -3.8,-5.7 -3.8,-9.1 v -78.7 h 83.5 v 78.7 c 0,7.1 -5.8,12.8 -12.8,12.8 H 435 l -19.1,-0.5 h -0.4 c -3.3,0.1 -6.5,1.4 -9,3.6 z"
   stroke-linecap="round"
   id="path2" />
</g><g
     transform="translate(-148.75,-1.7)"
     id="IOHf_Q-u2Z1uwtHCHvvcg">
<path
   style="opacity:1;fill:#c60351;fill-rule:nonzero;stroke:none;stroke-width:1;stroke-linecap:butt;stroke-linejoin:miter;stroke-miterlimit:4;stroke-dasharray:none;stroke-dashoffset:0"
   transform="translate(-385.7,-268.5)"
   d="m 364.8,221.2 v 78.7 c 0,3.4 1.3,6.7 3.8,9.1 2.4,2.4 5.6,3.8 9.1,3.8 h 0.4 l 19.1,-0.5 h 0.4 c 3.4,0 6.6,1.3 9,3.5 v -94.5 h -41.8 z"
   stroke-linecap="round"
   id="path3" />
</g><g
     transform="translate(-139.4,27.45)"
     id="r2EXGhp82bURlaAGQLodr">
<path
   style="opacity:1;fill:#012c60;fill-rule:nonzero;stroke:none;stroke-width:1;stroke-linecap:butt;stroke-linejoin:miter;stroke-miterlimit:4;stroke-dasharray:none;stroke-dashoffset:0"
   transform="translate(-395.05,-297.65)"
   d="m 386.8,285.8 1.4,3.5 v 20.2 h 4.8 v -20.2 h 6 v 20.2 h 4.3 v -23.7 z"
   stroke-linecap="round"
   id="path4" />
</g><g
     transform="translate(-159.6,-34.55)"
     id="cpSC8whLZzqtVNhW8mWm2">
<path
   style="opacity:1;fill:#012c60;fill-rule:nonzero;stroke:none;stroke-width:1;stroke-linecap:butt;stroke-linejoin:miter;stroke-miterlimit:4;stroke-dasharray:none;stroke-dashoffset:0"
   transform="translate(-374.85,-235.65)"
   d="m 366.6,223.8 1.4,3.5 v 20.2 h 4.8 v -20.2 h 6 v 20.2 h 4.3 v -23.7 z"
   stroke-linecap="round"
   id="path5" />
</g><g
     transform="translate(-156.9,-6.3)"
     id="LBZhFFFYmGOl_pMSd3e3B">
<path
   style="opacity:1;fill:#ffffff;fill-rule:nonzero;stroke:none;stroke-width:1;stroke-linecap:butt;stroke-linejoin:miter;stroke-miterlimit:4;stroke-dasharray:none;stroke-dashoffset:0"
   transform="translate(-377.55,-263.9)"
   d="m 388.1,254.6 -1.5,-1.6 -11.3,-1.8 -4.2,1.9 -4.1,20.9 14.2,2.6 3.2,-2.9 z"
   stroke-linecap="round"
   id="path6" />
</g><g
     transform="translate(-140.05,-3.1)"
     id="_VaGoYavPxBIw2UR0UlSR">
<path
   style="opacity:1;fill:#ffffff;fill-rule:nonzero;stroke:none;stroke-width:1;stroke-linecap:butt;stroke-linejoin:miter;stroke-miterlimit:4;stroke-dasharray:none;stroke-dashoffset:0"
   transform="translate(-394.4,-267.1)"
   d="m 388.1,254.6 2,-0.9 11.1,2.5 3.2,3.3 -4,21 -14.2,-3 -1.8,-3.8 z"
   stroke-linecap="round"
   id="path7" />
</g><g
     transform="translate(-148.9,-4.35)"
     id="XpTnUH59FjCtsrUqPrJ-t">
<path
   style="opacity:1;fill:#012c60;fill-rule:nonzero;stroke:none;stroke-width:1;stroke-linecap:butt;stroke-linejoin:miter;stroke-miterlimit:4;stroke-dasharray:none;stroke-dashoffset:0"
   transform="translate(-385.55,-265.85)"
   d="m 401.7,255.4 -11.7,-2.7 -1.7,0.8 -1.3,-1.4 -11.9,-1.9 -4.8,2.2 -4.4,22.3 15.5,2.8 2.6,-2.4 1.5,3.2 15.4,3.2 4.3,-22.3 z m -3.1,21 3.2,-18.3 1.6,1.7 -3.5,18.4 z m -8.4,-21.8 10,2.3 -3.3,18.6 -11.5,-2.6 3.4,-17.7 z m -3.1,0.3 -3.4,17.7 -11.6,-1.9 3.9,-18.5 10.2,1.6 z m -15.2,-1.2 2.1,-1 -3.9,18.2 -1.9,1.2 z m 9,21.9 -11.6,-2.1 1.8,-1.2 11.3,1.9 z m 5.1,-0.7 11.1,2.5 1.2,1.8 -11.5,-2.4 z"
   stroke-linecap="round"
   id="path8" />
</g><g
     transform="translate(-116.65,10.5)"
     id="gf4wSsLCzbgyxZm8Jy3I-">
<path
   style="opacity:1;fill:#ffffff;fill-rule:nonzero;stroke:none;stroke-width:1;stroke-linecap:butt;stroke-linejoin:miter;stroke-miterlimit:4;stroke-dasharray:none;stroke-dashoffset:0"
   transform="translate(-417.8,-280.7)"
   d="m 417.8,282.4 c 1.7,0 3.1,-1 3.8,-2.3 V 279 c -1,0.9 -2.4,1.4 -3.8,1.4 -1.5,0 -2.8,-0.5 -3.8,-1.4 v 1.1 c 0.7,1.4 2.1,2.3 3.8,2.3 z"
   stroke-linecap="round"
   id="path9" />
</g><g
     transform="translate(-109.05,10.5)"
     id="FN83rerEr-ARcYLcorq5Y">
<path
   style="opacity:1;fill:#ffffff;fill-rule:nonzero;stroke:none;stroke-width:1;stroke-linecap:butt;stroke-linejoin:miter;stroke-miterlimit:4;stroke-dasharray:none;stroke-dashoffset:0"
   transform="translate(-425.4,-280.7)"
   d="m 425.4,282.4 c 1.7,0 3.1,-1 3.8,-2.3 V 279 c -1,0.9 -2.4,1.4 -3.8,1.4 -1.5,0 -2.8,-0.5 -3.8,-1.4 v 1.1 c 0.7,1.4 2.1,2.3 3.8,2.3 z"
   stroke-linecap="round"
   id="path10" />
</g><g
     transform="translate(-101.45,10.5)"
     id="zylhbrzUoMhCFKcZWpcAL">
<path
   style="opacity:1;fill:#ffffff;fill-rule:nonzero;stroke:none;stroke-width:1;stroke-linecap:butt;stroke-linejoin:miter;stroke-miterlimit:4;stroke-dasharray:none;stroke-dashoffset:0"
   transform="translate(-433,-280.7)"
   d="m 433,282.4 c 1.7,0 3.1,-1 3.8,-2.3 V 279 c -1,0.9 -2.4,1.4 -3.8,1.4 -1.5,0 -2.8,-0.5 -3.8,-1.4 v 1.1 c 0.7,1.4 2.2,2.3 3.8,2.3 z"
   stroke-linecap="round"
   id="path11" />
</g><g
     transform="translate(-93.75,10.5)"
     id="0E1KPCmRTUZZIEdEKJFiq">
<path
   style="opacity:1;fill:#ffffff;fill-rule:nonzero;stroke:none;stroke-width:1;stroke-linecap:butt;stroke-linejoin:miter;stroke-miterlimit:4;stroke-dasharray:none;stroke-dashoffset:0"
   transform="translate(-440.7,-280.7)"
   d="m 440.7,282.4 c 1.7,0 3.1,-1 3.8,-2.3 V 279 c -1,0.9 -2.4,1.4 -3.8,1.4 -1.5,0 -2.8,-0.5 -3.8,-1.4 v 1.1 c 0.7,1.4 2.1,2.3 3.8,2.3 z"
   stroke-linecap="round"
   id="path12" />
</g><g
     transform="translate(-88.05,10.5)"
     id="dR98UppRP9VLyInosE4tg">
<path
   style="opacity:1;fill:#ffffff;fill-rule:nonzero;stroke:none;stroke-width:1;stroke-linecap:butt;stroke-linejoin:miter;stroke-miterlimit:4;stroke-dasharray:none;stroke-dashoffset:0"
   transform="translate(-446.4,-280.7)"
   d="m 448.3,282.4 c -1.7,0 -3.1,-1 -3.8,-2.3 V 279 c 1,0.9 2.4,1.4 3.8,1.4 z"
   stroke-linecap="round"
   id="path13" />
</g><g
     transform="translate(-122.35,10.5)"
     id="WMVvUNkWGEY6hW1-VjVc8">
<path
   style="opacity:1;fill:#ffffff;fill-rule:nonzero;stroke:none;stroke-width:1;stroke-linecap:butt;stroke-linejoin:miter;stroke-miterlimit:4;stroke-dasharray:none;stroke-dashoffset:0"
   transform="translate(-412.1,-280.7)"
   d="m 410.2,282.4 c 1.7,0 3.1,-1 3.8,-2.3 V 279 c -1,0.9 -2.4,1.4 -3.8,1.4 z"
   stroke-linecap="round"
   id="path14" />
</g><g
     transform="translate(-116.65,14.9)"
     id="tRI9xFwCXEBUfVjpxyTom">
<path
   style="opacity:1;fill:#ffffff;fill-rule:nonzero;stroke:none;stroke-width:1;stroke-linecap:butt;stroke-linejoin:miter;stroke-miterlimit:4;stroke-dasharray:none;stroke-dashoffset:0"
   transform="translate(-417.8,-285.1)"
   d="m 417.8,286.8 c 1.7,0 3.1,-1 3.8,-2.3 v -1.1 c -1,0.9 -2.4,1.4 -3.8,1.4 -1.5,0 -2.8,-0.5 -3.8,-1.4 v 1.1 c 0.7,1.3 2.1,2.3 3.8,2.3 z"
   stroke-linecap="round"
   id="path15" />
</g><g
     transform="translate(-109.05,14.9)"
     id="s2Drg1GmYyxH1sRqmw3YG">
<path
   style="opacity:1;fill:#ffffff;fill-rule:nonzero;stroke:none;stroke-width:1;stroke-linecap:butt;stroke-linejoin:miter;stroke-miterlimit:4;stroke-dasharray:none;stroke-dashoffset:0"
   transform="translate(-425.4,-285.1)"
   d="m 425.4,286.8 c 1.7,0 3.1,-1 3.8,-2.3 v -1.1 c -1,0.9 -2.4,1.4 -3.8,1.4 -1.5,0 -2.8,-0.5 -3.8,-1.4 v 1.1 c 0.7,1.3 2.1,2.3 3.8,2.3 z"
   stroke-linecap="round"
   id="path16" />
</g><g
     transform="translate(-101.45,14.9)"
     id="glhOaH-gPOmqNdjgVnl_b">
<path
   style="opacity:1;fill:#ffffff;fill-rule:nonzero;stroke:none;stroke-width:1;stroke-linecap:butt;stroke-linejoin:miter;stroke-miterlimit:4;stroke-dasharray:none;stroke-dashoffset:0"
   transform="translate(-433,-285.1)"
   d="m 433,286.8 c 1.7,0 3.1,-1 3.8,-2.3 v -1.1 c -1,0.9 -2.4,1.4 -3.8,1.4 -1.5,0 -2.8,-0.5 -3.8,-1.4 v 1.1 c 0.7,1.3 2.2,2.3 3.8,2.3 z"
   stroke-linecap="round"
   id="path17" />
</g><g
     transform="translate(-93.75,14.9)"
     id="MZrOvSMUDu_7gV-T30HDT">
<path
   style="opacity:1;fill:#ffffff;fill-rule:nonzero;stroke:none;stroke-width:1;stroke-linecap:butt;stroke-linejoin:miter;stroke-miterlimit:4;stroke-dasharray:none;stroke-dashoffset:0"
   transform="translate(-440.7,-285.1)"
   d="m 440.7,286.8 c 1.7,0 3.1,-1 3.8,-2.3 v -1.1 c -1,0.9 -2.4,1.4 -3.8,1.4 -1.5,0 -2.8,-0.5 -3.8,-1.4 v 1.1 c 0.7,1.3 2.1,2.3 3.8,2.3 z"
   stroke-linecap="round"
   id="path18" />
</g><g
     transform="translate(-88.05,14.9)"
     id="J9CFCBM6GYdHyBKNUnCZg">
<path
   style="opacity:1;fill:#ffffff;fill-rule:nonzero;stroke:none;stroke-width:1;stroke-linecap:butt;stroke-linejoin:miter;stroke-miterlimit:4;stroke-dasharray:none;stroke-dashoffset:0"
   transform="translate(-446.4,-285.1)"
   d="m 448.3,286.8 c -1.7,0 -3.1,-1 -3.8,-2.3 v -1.1 c 1,0.9 2.4,1.4 3.8,1.4 z"
   stroke-linecap="round"
   id="path19" />
</g><g
     transform="translate(-122.35,14.9)"
     id="0WTCytQKbGv8GaM5PHJ3F">
<path
   style="opacity:1;fill:#ffffff;fill-rule:nonzero;stroke:none;stroke-width:1;stroke-linecap:butt;stroke-linejoin:miter;stroke-miterlimit:4;stroke-dasharray:none;stroke-dashoffset:0"
   transform="translate(-412.1,-285.1)"
   d="m 410.2,286.8 c 1.7,0 3.1,-1 3.8,-2.3 v -1.1 c -1,0.9 -2.4,1.4 -3.8,1.4 z"
   stroke-linecap="round"
   id="path20" />
</g><g
     transform="translate(-116.65,19.2)"
     id="yng3O7R-MwXd-8QcDct8_">
<path
   style="opacity:1;fill:#ffffff;fill-rule:nonzero;stroke:none;stroke-width:1;stroke-linecap:butt;stroke-linejoin:miter;stroke-miterlimit:4;stroke-dasharray:none;stroke-dashoffset:0"
   transform="translate(-417.8,-289.4)"
   d="m 417.8,291.1 c 1.7,0 3.1,-1 3.8,-2.3 v -1.1 c -1,0.9 -2.4,1.4 -3.8,1.4 -1.5,0 -2.8,-0.5 -3.8,-1.4 v 1.1 c 0.7,1.3 2.1,2.3 3.8,2.3 z"
   stroke-linecap="round"
   id="path21" />
</g><g
     transform="translate(-109.05,19.2)"
     id="aAMYBDrzWJHhs9FZOKTDd">
<path
   style="opacity:1;fill:#ffffff;fill-rule:nonzero;stroke:none;stroke-width:1;stroke-linecap:butt;stroke-linejoin:miter;stroke-miterlimit:4;stroke-dasharray:none;stroke-dashoffset:0"
   transform="translate(-425.4,-289.4)"
   d="m 425.4,291.1 c 1.7,0 3.1,-1 3.8,-2.3 v -1.1 c -1,0.9 -2.4,1.4 -3.8,1.4 -1.5,0 -2.8,-0.5 -3.8,-1.4 v 1.1 c 0.7,1.3 2.1,2.3 3.8,2.3 z"
   stroke-linecap="round"
   id="path22" />
</g><g
     transform="translate(-101.45,19.2)"
     id="qFotfG2AWPIpNB21D7DVk">
<path
   style="opacity:1;fill:#ffffff;fill-rule:nonzero;stroke:none;stroke-width:1;stroke-linecap:butt;stroke-linejoin:miter;stroke-miterlimit:4;stroke-dasharray:none;stroke-dashoffset:0"
   transform="translate(-433,-289.4)"
   d="m 433,291.1 c 1.7,0 3.1,-1 3.8,-2.3 v -1.1 c -1,0.9 -2.4,1.4 -3.8,1.4 -1.5,0 -2.8,-0.5 -3.8,-1.4 v 1.1 c 0.7,1.3 2.2,2.3 3.8,2.3 z"
   stroke-linecap="round"
   id="path23" />
</g><g
     transform="translate(-93.75,19.2)"
     id="OAv1wjbrWzwy3nVhkQeFn">
<path
   style="opacity:1;fill:#ffffff;fill-rule:nonzero;stroke:none;stroke-width:1;stroke-linecap:butt;stroke-linejoin:miter;stroke-miterlimit:4;stroke-dasharray:none;stroke-dashoffset:0"
   transform="translate(-440.7,-289.4)"
   d="m 440.7,291.1 c 1.7,0 3.1,-1 3.8,-2.3 v -1.1 c -1,0.9 -2.4,1.4 -3.8,1.4 -1.5,0 -2.8,-0.5 -3.8,-1.4 v 1.1 c 0.7,1.3 2.1,2.3 3.8,2.3 z"
   stroke-linecap="round"
   id="path24" />
</g><g
     transform="translate(-88.05,19.2)"
     id="hYsPozXG1C3ovJNUF_6yp">
<path
   style="opacity:1;fill:#ffffff;fill-rule:nonzero;stroke:none;stroke-width:1;stroke-linecap:butt;stroke-linejoin:miter;stroke-miterlimit:4;stroke-dasharray:none;stroke-dashoffset:0"
   transform="translate(-446.4,-289.4)"
   d="m 448.3,291.1 c -1.7,0 -3.1,-1 -3.8,-2.3 v -1.1 c 1,0.9 2.4,1.4 3.8,1.4 z"
   stroke-linecap="round"
   id="path25" />
</g><g
     transform="translate(-122.35,19.2)"
     id="ertXpkFOp086nsF0U8wVT">
<path
   style="opacity:1;fill:#ffffff;fill-rule:nonzero;stroke:none;stroke-width:1;stroke-linecap:butt;stroke-linejoin:miter;stroke-miterlimit:4;stroke-dasharray:none;stroke-dashoffset:0"
   transform="translate(-412.1,-289.4)"
   d="m 410.2,291.1 c 1.7,0 3.1,-1 3.8,-2.3 v -1.1 c -1,0.9 -2.4,1.4 -3.8,1.4 z"
   stroke-linecap="round"
   id="path26" />
</g><g
     transform="translate(-116.65,23.5)"
     id="3VqsdmnXYAOC5Vab-yWe-">
<path
   style="opacity:1;fill:#ffffff;fill-rule:nonzero;stroke:none;stroke-width:1;stroke-linecap:butt;stroke-linejoin:miter;stroke-miterlimit:4;stroke-dasharray:none;stroke-dashoffset:0"
   transform="translate(-417.8,-293.7)"
   d="m 417.8,295.4 c 1.7,0 3.1,-1 3.8,-2.3 V 292 c -1,0.9 -2.4,1.4 -3.8,1.4 -1.5,0 -2.8,-0.5 -3.8,-1.4 v 1.1 c 0.7,1.4 2.1,2.3 3.8,2.3 z"
   stroke-linecap="round"
   id="path27" />
</g><g
     transform="translate(-109.05,23.5)"
     id="DwZQXcuCvqkqPd1TRk_Br">
<path
   style="opacity:1;fill:#ffffff;fill-rule:nonzero;stroke:none;stroke-width:1;stroke-linecap:butt;stroke-linejoin:miter;stroke-miterlimit:4;stroke-dasharray:none;stroke-dashoffset:0"
   transform="translate(-425.4,-293.7)"
   d="m 425.4,295.4 c 1.7,0 3.1,-1 3.8,-2.3 V 292 c -1,0.9 -2.4,1.4 -3.8,1.4 -1.5,0 -2.8,-0.5 -3.8,-1.4 v 1.1 c 0.7,1.4 2.1,2.3 3.8,2.3 z"
   stroke-linecap="round"
   id="path28" />
</g><g
     transform="translate(-101.45,23.5)"
     id="9pW4l7gKdaH9MyhrHHKiP">
<path
   style="opacity:1;fill:#ffffff;fill-rule:nonzero;stroke:none;stroke-width:1;stroke-linecap:butt;stroke-linejoin:miter;stroke-miterlimit:4;stroke-dasharray:none;stroke-dashoffset:0"
   transform="translate(-433,-293.7)"
   d="m 433,295.4 c 1.7,0 3.1,-1 3.8,-2.3 V 292 c -1,0.9 -2.4,1.4 -3.8,1.4 -1.5,0 -2.8,-0.5 -3.8,-1.4 v 1.1 c 0.7,1.4 2.2,2.3 3.8,2.3 z"
   stroke-linecap="round"
   id="path29" />
</g><g
     transform="translate(-93.75,23.5)"
     id="3jG-BDtzsGaUATv3lTOp9">
<path
   style="opacity:1;fill:#ffffff;fill-rule:nonzero;stroke:none;stroke-width:1;stroke-linecap:butt;stroke-linejoin:miter;stroke-miterlimit:4;stroke-dasharray:none;stroke-dashoffset:0"
   transform="translate(-440.7,-293.7)"
   d="m 440.7,295.4 c 1.7,0 3.1,-1 3.8,-2.3 V 292 c -1,0.9 -2.4,1.4 -3.8,1.4 -1.5,0 -2.8,-0.5 -3.8,-1.4 v 1.1 c 0.7,1.4 2.1,2.3 3.8,2.3 z"
   stroke-linecap="round"
   id="path30" />
</g><g
     transform="translate(-88.05,23.5)"
     id="0Tbxx_7wl23FtyKuVaBDG">
<path
   style="opacity:1;fill:#ffffff;fill-rule:nonzero;stroke:none;stroke-width:1;stroke-linecap:butt;stroke-linejoin:miter;stroke-miterlimit:4;stroke-dasharray:none;stroke-dashoffset:0"
   transform="translate(-446.4,-293.7)"
   d="m 448.3,295.4 c -1.7,0 -3.1,-1 -3.8,-2.3 V 292 c 1,0.9 2.4,1.4 3.8,1.4 z"
   stroke-linecap="round"
   id="path31" />
</g><g
     transform="translate(-122.35,23.5)"
     id="UFPmcx0Oh6rTi-Y0eTAQM">
<path
   style="opacity:1;fill:#ffffff;fill-rule:nonzero;stroke:none;stroke-width:1;stroke-linecap:butt;stroke-linejoin:miter;stroke-miterlimit:4;stroke-dasharray:none;stroke-dashoffset:0"
   transform="translate(-412.1,-293.7)"
   d="m 410.2,295.4 c 1.7,0 3.1,-1 3.8,-2.3 V 292 c -1,0.9 -2.4,1.4 -3.8,1.4 z"
   stroke-linecap="round"
   id="path32" />
</g><g
     transform="translate(-97.35,-28.5)"
     id="hTde0IZ-zRJd0kd7R5pTA">
<path
   style="opacity:1;fill:#ffffff;fill-rule:nonzero;stroke:none;stroke-width:1;stroke-linecap:butt;stroke-linejoin:miter;stroke-miterlimit:4;stroke-dasharray:none;stroke-dashoffset:0"
   transform="translate(-437.1,-241.7)"
   d="m 448,236.6 -3.9,-13.2 0.6,-0.8 -2,-1.4 -0.9,2.3 0.9,0.3 3.5,11.8 -6.4,1.9 -3.5,-11.7 0.6,-0.9 -2,-1.3 -0.9,2.2 0.9,0.3 3.6,11.9 -6.4,1.9 -3.5,-11.8 0.6,-0.9 -2,-1.3 -1,2.2 1,0.4 3.9,13.2 8,-2.4 6.9,22.9 0.7,-1.1 L 440,239 Z"
   stroke-linecap="round"
   id="path33" />
</g><g
     transform="translate(-105.17778,-12.208037)"
     id="iZfnK-GbzbcsMBOJ1Wp9J">
<path
   style="opacity:1;fill:#ffffff;fill-rule:evenodd;stroke:none;stroke-width:1;stroke-linecap:butt;stroke-linejoin:miter;stroke-miterlimit:4;stroke-dasharray:none;stroke-dashoffset:0"
   transform="translate(-429.27222,-257.99196)"
   d="m 437.1,271.3 c 0.3,-0.6 -0.9,-2.3 -1.3,-3.1 -0.2,-0.6 -0.4,-1.2 -0.6,-1.9 -0.1,-0.2 -0.2,-0.5 -0.3,-0.8 v -0.2 c -0.2,-0.7 -0.6,-1.3 -0.9,-1.9 -0.2,0 -0.2,0.2 -0.2,0.3 -0.1,0.2 -0.2,0.3 -0.4,0.4 -0.1,0 -0.3,-0.1 -0.3,-0.2 0,-0.1 -0.1,-0.2 -0.1,-0.3 0,-0.1 0,-0.3 0.1,-0.5 0.1,-0.4 -0.2,-0.8 -0.4,-0.9 -0.2,-0.1 -0.4,-0.1 -0.6,-0.2 -0.4,0 -1,-0.1 -1.2,0.1 0,0.7 0.1,1.4 -0.1,1.9 -0.1,0.1 -0.1,0.4 -0.3,0.3 -0.2,0 -0.2,-0.2 -0.4,-0.3 0,-0.3 0.1,-0.8 0,-1.1 -0.2,-0.8 -0.1,-1.7 0.3,-2.2 0.1,-0.2 0.3,-0.6 0.7,-0.5 0.4,0.1 0.4,0.6 0.6,0.9 0.3,0.4 1.2,0.4 1.7,0.2 0.1,-0.3 -0.1,-0.6 -0.1,-0.8 -0.3,-0.1 -0.6,-0.1 -0.8,-0.2 -0.5,-0.2 -1,-0.8 -1.4,-1.2 0,-0.5 0.3,-0.7 0.5,-0.9 0.4,0 0.4,0.5 0.7,0.6 0.2,0.1 0.4,-0.3 0.5,-0.4 0,-0.9 -0.7,-1.1 -0.7,-2.2 -0.3,-0.2 -0.5,-0.4 -0.6,-0.8 -0.1,-0.3 0.1,-1.1 0.2,-1.3 v -0.2 c 0,-0.1 0.1,-0.3 0,-0.4 -0.1,-0.2 -0.2,-0.4 -0.2,-0.6 0.1,-0.1 0.1,-0.2 0.3,-0.2 h 0.2 c 0.1,0.1 0.3,0.2 0.5,0.4 0.1,0.1 0.1,0.2 0.3,0.3 0.1,0.1 0.3,0.1 0.4,0.2 0.2,0.3 0.3,0.9 0.4,1.3 v 0.3 c 0,0.2 0.1,0.4 0.1,0.6 0.2,0.6 0.3,1.3 0.5,1.9 0.1,0.4 0.1,0.9 0.4,1.1 0.1,0 0.2,0 0.3,-0.1 0,-0.4 -0.1,-0.8 -0.2,-1.2 v -0.3 c -0.3,-0.7 -0.6,-1.5 -0.6,-2.5 0.2,-0.2 0.4,-0.4 0.5,-0.6 0,-0.1 0.1,-0.3 0.1,-0.4 0,-0.1 0.2,-0.4 0.2,-0.5 0,-0.1 -0.1,-0.2 -0.1,-0.4 -0.1,-0.4 0.1,-0.9 0,-1.2 0,-0.1 -0.1,-0.3 -0.2,-0.4 -0.1,-0.1 -0.3,-0.2 -0.4,-0.3 v -0.5 c 0,-0.2 -0.1,-0.3 -0.1,-0.5 -0.2,-0.6 -0.7,-1.9 -0.5,-2.7 0.1,-0.3 0.3,-0.5 0.5,-0.8 0.2,0 0.3,0.4 0.4,0.6 0.2,0.2 0.5,0.4 0.6,0.7 0.1,0.1 0.1,0.4 0,0.5 0,0.1 -0.1,0.2 -0.1,0.3 l 0.3,0.6 c 0.2,0.3 0.4,0.8 0.8,0.6 V 249 c -0.1,-0.3 0,-0.5 -0.1,-0.8 -0.1,-0.5 -0.3,-0.9 -0.4,-1.3 -0.1,-0.3 -0.2,-0.6 -0.4,-0.9 -0.1,-0.1 -0.2,-0.2 -0.2,-0.3 -0.1,-0.1 -0.1,-0.2 -0.2,-0.2 -0.4,-0.3 -0.8,-0.5 -1.3,-0.8 -0.9,-0.6 -1.8,-1.1 -2.8,-1.6 -0.4,-0.2 -0.8,-0.4 -1.2,-0.5 l -0.9,-0.3 h -0.2 c -0.1,0 -0.2,-0.1 -0.3,-0.1 -0.1,0.2 0.3,0.5 0.4,0.7 0.1,0.4 -0.1,0.7 -0.3,0.9 -0.2,0 -0.5,-0.1 -0.6,-0.2 -0.2,0 -0.2,0.2 -0.3,0.3 -0.3,0.1 -0.6,0 -0.8,-0.2 h -0.1 v 0.5 c -0.1,0.5 0,1 0.1,1.3 h 0.3 c 0,-0.2 0.1,-0.4 0.2,-0.5 0.1,-0.1 0.2,-0.1 0.3,-0.1 0.1,0 0.1,0 0.2,0.1 0.3,0 0.4,-0.4 0.6,-0.5 0.1,0.1 0.1,0.2 0.2,0.2 0.1,-0.1 0.1,-0.2 0.1,-0.3 0.1,-0.1 0.3,-0.2 0.4,-0.4 0.3,0 0.4,0.6 0.5,0.8 0.2,0 0.3,-0.1 0.5,-0.1 h 1 c 0.3,-0.1 0.4,-0.3 0.5,-0.5 0.2,0 0.2,0.2 0.3,0.3 0.2,0.2 0.4,0.4 0.6,0.5 0.1,0.1 0.1,0.2 0.1,0.3 0,0.5 -0.3,1.2 -0.6,1.4 -0.1,0.1 -0.3,0.2 -0.5,0.3 h -0.1 l -0.4,-0.4 c 0,-0.2 0.4,-0.4 0.5,-0.6 0.2,-0.2 0,-0.7 -0.1,-0.9 h -0.3 l -0.5,0.5 c -0.1,0 -0.2,0 -0.3,-0.1 h -0.1 c 0,0.2 0.1,0.4 0.2,0.6 v 0.4 c 0,0.5 -0.1,0.8 -0.3,1 -0.2,0 -0.2,-0.1 -0.3,-0.2 h -0.6 c 0.2,0.1 0.4,0.3 0.5,0.5 0.2,0.4 -0.1,0.7 -0.3,0.9 -0.5,0.5 -1.2,1 -1.4,1.7 -0.1,0.3 0.1,0.6 0.1,0.8 0,0.2 -0.1,0.3 0,0.5 0.2,0.5 0.6,0.8 0.8,1.2 0.1,0.2 0,0.4 0.1,0.6 0.3,0.1 0.9,-0.1 1.3,0 0.6,0.1 1,0.5 0.9,1.3 -0.3,0.3 -0.6,0.7 -0.9,1 -0.2,0.1 -0.4,0.2 -0.5,0.4 -0.7,0 -1.1,-0.8 -1.6,-1.1 -0.2,-0.2 -0.5,-0.3 -0.7,-0.5 h -0.1 c -0.1,0.6 0.1,1.1 0.2,1.6 0.1,0.4 0.1,0.8 0.2,1.2 0.1,0.3 0.3,0.7 0.2,1.1 0,0.2 -0.2,0.3 -0.2,0.4 -0.3,0.1 -0.4,-0.1 -0.6,-0.2 -0.4,-0.2 -0.6,-0.5 -1,-0.7 -0.2,-0.1 -0.5,-0.2 -0.7,-0.3 h -0.1 c -0.1,0.1 0.1,0.6 0.1,0.8 0.2,0.6 0.3,1.2 0.5,1.8 0.1,0.3 0.1,0.6 0.2,0.8 0.2,0 0.4,-0.2 0.5,0 l 0.1,0.1 c 0,0.2 -0.2,0.6 -0.2,0.7 v 0.1 c 0.2,0 0.4,-0.4 0.5,-0.6 0.4,0 0.5,0.2 0.7,0.4 0,0.7 -0.7,1.3 -0.4,2 0.3,0.6 1.2,0.4 1.4,1 -0.1,0.1 -0.1,0.2 -0.2,0.2 -0.3,0 -0.6,0 -0.8,-0.1 h -0.2 c 0,0.5 0.1,1 0.3,1.3 0,0.2 -0.2,0.3 -0.3,0.5 -0.1,0.4 0.2,0.6 0.1,1 -0.1,0.2 -0.3,0.3 -0.4,0.4 -0.7,0 -0.9,-0.9 -0.7,-1.7 v -0.6 c 0,-0.2 0.1,-0.5 0,-0.7 v -0.5 c -0.1,-0.2 -0.2,-0.4 -0.3,-0.5 h -0.1 c -0.1,0.3 0.1,0.5 0,0.9 -0.1,0.2 -0.2,0.4 -0.4,0.5 h -0.2 c -0.2,-0.2 -0.3,-0.3 -0.4,-0.5 -0.1,-0.5 0.2,-1.4 -0.1,-1.8 0,0 0,-0.1 -0.1,-0.1 -0.3,0 -0.4,0.3 -0.8,0.3 l -0.2,-0.2 c 0,-0.2 0.1,-0.4 0,-0.6 -0.1,-0.2 -0.2,-0.3 -0.2,-0.6 0.1,-0.1 0.1,-0.2 0.2,-0.2 0.6,-0.3 0.7,0.3 1,0.4 h 0.1 c 0,-0.7 -0.3,-1.1 -0.6,-1.6 l -0.6,-0.9 c -0.1,-0.2 -0.2,-0.3 -0.3,-0.5 -0.1,-0.1 -0.2,-0.1 -0.3,-0.2 -0.2,0 -0.2,0 -0.3,0.1 -0.1,0.4 -0.2,0.6 -0.3,0.9 -0.4,0 -0.4,-0.6 -0.7,-0.8 v 0.3 c -0.1,0.3 -0.3,0.5 -0.1,0.8 0,0.3 -0.4,0.5 -0.6,0.6 v 0.6 c 0,0.1 -0.1,0.2 0,0.3 0,0.1 0.1,0.1 0.1,0.2 0.1,0.2 0.2,0.3 0.3,0.5 0.3,0.6 0.4,1.3 0.7,1.9 0.1,0.3 0.2,0.7 0.5,0.8 0.1,0 0.4,-0.1 0.6,0 0.1,0 0.3,0.1 0.4,0.2 0.7,0.5 1,1.5 1.6,2.2 0.1,0 0.2,-0.1 0.3,-0.1 0.6,0.1 0.8,0.7 1,1.1 l 0.3,0.3 c 0.2,0 0.4,-0.3 0.6,-0.2 0.4,0.1 0.7,0.5 0.9,0.8 0.1,0.2 0.4,0.3 0.5,0.4 h 0.1 c 0.3,-0.1 0.2,-0.6 0.2,-0.9 0.2,-0.2 0.3,-0.4 0.6,-0.4 0.2,0.2 0.5,0.4 0.6,0.7 0.1,0.2 0,0.3 0,0.4 l 0.3,0.3 c 0.1,0.2 0.2,0.4 0.3,0.7 v 0.5 c -0.1,0.4 0,1 0.1,1.2 0.1,0.2 0.6,0.7 1,0.5 0.6,-0.1 0.4,-0.8 0.5,-1.3 0,-0.1 0.1,-0.3 0.1,-0.4 0.1,-0.1 0.2,-0.1 0.2,-0.3 0.3,0 0.8,0.5 0.7,0.9 0,0.1 -0.2,0.4 -0.1,0.6 0.1,0.4 0.5,0.5 0.8,0.7 h 0.1 c 0.2,-0.4 -0.1,-0.9 -0.3,-1.2 0,-0.1 0,-0.2 -0.1,-0.3 0,-0.3 0.1,-0.3 0.2,-0.5 0.3,0 0.3,0.2 0.5,0.3 0.3,0.4 0.6,0.7 0.7,1.3 0.1,0.4 -0.2,0.9 -0.1,0.9 0.2,0.5 0.9,-0.2 1.1,0 0.8,0 0.5,-1.4 0.3,-1.8 0.6,-0.2 0.6,-0.4 0.5,-0.5 z M 432,248 h 0.2 l 0.3,0.3 c 0,0.3 -0.2,0.4 -0.2,0.7 h -0.2 c -0.4,-0.1 -0.2,-0.8 -0.1,-1 z m -1.2,2 c -0.6,-0.1 -1.2,-0.5 -1.7,0.1 H 429 c -0.1,-0.6 0.7,-0.7 1,-1.1 h 0.1 c 0.1,0.2 0.2,0.4 0.3,0.5 0.2,0 0.5,-0.4 0.6,-0.5 0.2,0 0.3,0.1 0.4,0.3 v 0.2 c -0.1,0.1 -0.1,0.2 -0.2,0.3 -0.2,0 -0.3,0.1 -0.4,0.2 z m -2.2,16.8 c -0.3,-0.3 -0.1,-0.4 0.1,-0.6 0.1,0.1 0.2,0.2 0.3,0.2 0.1,0.2 -0.1,0.4 -0.4,0.4 z m 2.7,2.3 h -0.2 c -0.1,0 -0.3,-0.6 -0.4,-0.7 -0.3,-0.5 -1.4,-1.3 -0.7,-2.1 h 0.1 c 0.2,0.1 0.3,0.5 0.4,0.7 0.2,0.4 0.4,0.8 0.6,1.1 0.1,0.3 0.2,0.5 0.4,0.7 0,0.3 -0.1,0.2 -0.2,0.3 z m 0.7,-2.3 h 0.1 c 0.3,0.1 0.2,0.5 0.3,0.7 l 0.2,0.2 c 0,0.1 0,0.1 -0.1,0.2 0,0.2 0.1,0.7 -0.1,0.8 0,0 -0.1,0 -0.2,0.1 -0.6,-0.1 -0.5,-1.5 -0.2,-2 z m 0.6,5.3 h -0.2 c -0.2,-0.1 -0.4,-0.7 -0.3,-0.9 V 271 h 0.1 c 0.2,0.3 0.4,0.4 0.4,1 z m 1.2,-2.1 c -0.2,-0.1 -0.3,-0.4 -0.4,-0.6 -0.2,-0.4 -0.3,-1.4 -0.7,-1.6 0,-0.2 0.2,-0.1 0.3,-0.3 0.1,-0.2 0.1,-0.7 0,-0.8 0,-0.2 0.1,-0.3 0.3,-0.4 h 0.1 c 0.2,0.1 0.3,1.1 0.4,1.4 z m 2.5,2 c -0.3,0 -0.3,-0.4 -0.4,-0.5 -0.4,-0.4 -0.9,-0.8 -1.1,-1.4 -0.1,-0.2 0,-0.7 0,-0.8 0,-0.3 -0.3,-0.4 -0.4,-0.5 0,-0.3 0.4,-0.3 0.5,-0.5 h 0.1 c 0.2,0.1 0.3,1 0.4,1.4 0.2,0.6 0.3,1.2 0.6,1.7 0.1,0.2 0.3,0.3 0.5,0.5 0,0 -0.1,0 -0.2,0.1 z m -11.7,-27.1 c 0.2,0 0.6,-0.2 0.7,-0.4 0.1,-0.1 0,-0.3 0,-0.5 0.1,-0.1 0.2,-0.3 0.4,-0.4 0,-0.2 -0.2,-0.2 -0.3,-0.2 -0.4,-0.2 -0.8,-0.4 -1.4,-0.4 -0.1,0.1 -0.2,0 -0.3,0.1 -0.2,0.1 -0.3,0.3 -0.4,0.5 0,0.6 0.9,0.7 1.3,1.3 z m -3.5,-0.2 c 0.2,0.2 0.6,0.8 1,0.6 v -0.1 c 0,-0.4 -0.4,-0.4 -0.5,-0.7 -0.1,-0.1 0,-0.3 0,-0.5 h -0.5 c -0.1,0 -0.2,0 -0.2,0.1 v 0.4 c 0,0.1 0.1,0.2 0.2,0.2 z m -0.8,1.5 c 0.1,-0.1 0.1,-0.2 0.1,-0.5 0,-0.5 -0.2,-0.7 -0.7,-0.7 0,0 -0.1,0.1 -0.1,0.2 l 0.2,0.2 c 0.2,0.3 0.2,0.7 0.5,0.8 z m -1.6,0.5 c 0,-0.1 0.1,-0.3 0.1,-0.4 -0.1,-0.3 -0.3,-0.5 -0.4,-0.7 h -0.3 l -0.1,0.1 c 0,0.4 0.1,0.8 0.2,1.2 0.1,0.3 0,0.5 0.1,0.7 0,0.2 0,0.3 0.1,0.4 h 0.3 c 0,-0.6 -0.1,-1 0,-1.3 z m -2.9,-0.3 c -0.1,0.2 0.1,0.4 0.2,0.5 0.1,0.2 0.2,0.4 0.3,0.7 0.1,0.2 0.1,0.4 0.2,0.6 0,0.1 0.2,0.1 0.2,0.2 h 0.1 c 0.3,-0.1 0.2,-0.7 0.1,-1 -0.3,-0.8 -0.1,-1.1 -1.1,-1 z m 10.4,3.1 c 1,0 1.1,-0.2 1.4,-1 v -0.4 c 0,-0.1 0.1,-0.2 0.2,-0.4 0.1,-0.2 -0.1,-0.4 -0.1,-0.5 -0.2,-0.3 -0.2,-0.5 -0.7,-0.5 -0.2,0.2 -0.3,0.5 -0.4,0.8 -0.1,0.3 -0.3,0.7 -0.5,1.1 -0.1,0.3 0,0.5 0,0.7 0,0.1 0,0.1 0.1,0.2 z m -10.9,-0.2 c 0.1,-0.4 0,-0.8 0.2,-1 0,-0.2 -0.5,-1 -0.6,-1.1 -0.1,-0.1 -0.3,-0.1 -0.4,0 -0.1,0 -0.1,0 -0.2,0.1 -0.3,0.1 -0.6,0.3 -0.7,0.7 -0.2,0.7 0.5,1.6 0,2.2 -0.2,0 -0.7,-0.6 -0.8,-0.7 -0.2,0 -0.2,0.2 -0.3,0.4 -0.2,0.4 -0.5,1.6 -0.2,2 h 0.3 c 0.1,-0.1 0.1,-0.2 0.2,-0.4 l 0.3,-0.3 c 0.1,-0.1 0.1,-0.3 0.2,-0.4 0.3,-0.2 0.8,-0.1 1.1,-0.3 0.1,-0.4 -0.1,-0.6 -0.1,-0.9 0.1,-0.1 0.2,-0.3 0.3,-0.3 0.2,-0.1 0.5,0.1 0.7,0 z m 10,0.7 c 0,-0.3 0,-0.7 -0.1,-1 v -0.6 c 0,-0.3 -0.2,-0.4 -0.5,-0.4 -0.1,0.1 -0.4,0.2 -0.5,0.3 0,0.2 0.3,0.4 0.4,0.5 0,0.2 -0.1,0.2 -0.1,0.3 -0.1,0.4 0.5,0.9 0.6,1.1 0.1,0 0.1,-0.2 0.2,-0.2 z m -1.4,-1.6 c -0.1,-0.1 -0.1,-0.1 -0.2,-0.1 h -0.1 v 0.1 c 0.2,0.1 0.3,0.1 0.3,0 z m -1.8,2.5 v -0.3 c 0.1,-0.2 0.2,-0.5 0.3,-0.7 0.1,-0.3 -0.1,-0.7 -0.2,-0.9 h -0.3 c -0.3,0.6 0,1.5 -0.8,1.7 0,0.2 0.2,0.4 0.1,0.7 -0.1,0.4 -0.4,0.8 -0.4,1.2 v 0.4 l 0.1,0.1 h 0.4 c 0.2,-0.1 0.2,-0.6 0.3,-0.8 0.2,-0.6 0.3,-1.1 0.5,-1.4 z m 1.3,-1.9 c 0,0.2 0,0.5 0.1,0.6 0.1,0 0.1,0 0.2,-0.1 V 249 l -0.1,-0.1 c 0,0.1 0,0.1 -0.2,0.1 0.1,0 0.1,0 0,0 z m -3.3,1.8 c 0.1,-0.2 -0.1,-0.6 0,-0.7 0,-0.1 0,-0.1 -0.1,-0.2 h -0.1 c -0.1,0.1 -0.2,0.1 -0.2,0.2 -0.1,0.1 -0.2,0.3 -0.4,0.4 H 419 c -0.1,0 -0.3,0.1 -0.4,0.1 -0.1,0 -0.1,0.1 -0.1,0.1 0,0.2 0.1,0.3 0.2,0.5 0,0.1 0,0.2 0.1,0.4 0,0.1 0.1,0.2 0.2,0.3 h 0.4 c 0.1,-0.1 0.1,-0.4 0.2,-0.5 0.1,0 0.2,-0.1 0.4,-0.1 l 0.1,-0.1 c -0.1,-0.2 0,-0.3 0,-0.4 z m -3,1.1 c -0.1,0 -0.1,0 0,0 0,0.1 0,0.2 0.1,0.2 0.1,0.1 0.1,0.4 0.2,0.5 h 0.3 c 0.1,0 0.2,-0.1 0.2,-0.1 0.1,-0.4 -0.5,-0.6 -0.8,-0.6 z m 8.5,0.4 c 0.1,0 0.1,0 0.2,-0.1 0,-0.3 -0.2,-0.3 -0.5,-0.3 -0.1,0.2 0.1,0.3 0.3,0.4 z m -0.5,-0.3 h -0.3 c 0,0 -0.1,0.1 -0.2,0.1 0,0.2 0.1,0.2 0.2,0.2 z m -9.5,0 c -0.2,0.1 -0.4,0.2 -0.4,0.4 -0.1,0.3 0.1,0.8 0,1.1 -0.1,0.2 -0.2,0.3 -0.3,0.5 v 0.1 h 0.4 c 0,0 0.1,-0.1 0.2,-0.1 0.2,-0.6 -0.1,-1.5 0.1,-2 z m -1.9,2.5 c 0,0 0.1,-0.6 0,-0.7 0,-0.1 -0.1,-0.2 -0.1,-0.2 h -0.1 c -0.1,0.2 -0.1,0.3 -0.2,0.5 -0.1,0.3 -0.2,0.4 -0.1,0.8 h 0.1 c 0.1,-0.1 0.3,-0.2 0.4,-0.4 z m 11.1,0.4 c 0,-0.1 -0.2,-0.3 -0.2,-0.4 -0.1,-0.3 -0.1,-0.7 -0.4,-0.8 H 424 c -0.1,0.1 -0.2,0 -0.3,0.1 -0.1,0 -0.1,0.1 -0.1,0.1 0,0.3 0.1,0.1 0.4,0.2 0.2,0.1 0.4,0.3 0.5,0.5 0.2,0.6 -0.6,1 -0.4,1.7 0,0.1 0.1,0.2 0.2,0.3 0.1,0.2 0.2,0.3 0.4,0.4 l 0.1,-0.1 c 0.1,-0.3 0,-0.8 0,-1.2 z m -4,4.1 c -0.3,0.2 -0.5,0 -0.8,0.2 -0.1,0.4 0.2,1 -0.1,1.3 0,0.1 0,0.1 0.1,0.2 0.1,0.1 0.2,0.1 0.3,0 0.3,-0.3 0.5,-0.7 0.7,-1.1 0,-0.1 0.2,-0.3 0.1,-0.4 v -0.1 c 0,-0.1 -0.1,-0.1 -0.3,-0.1 z m -6.3,2.9 c 0,-0.1 0.1,-0.2 0,-0.3 -0.1,-0.2 -0.2,-0.3 -0.2,-0.5 -0.1,-0.4 -0.2,-0.8 -0.6,-0.9 h -0.1 c -0.1,0.2 0,0.3 0.1,0.5 0.1,0.4 0.1,0.7 0.2,1.1 0,0.2 0,0.5 0.1,0.7 0.2,0.9 0.2,2.3 0,3.1 -0.3,1 -0.8,1.8 -1.5,2.4 -0.1,0.1 -0.1,0.2 -0.2,0.3 -0.4,0.3 -1,0.3 -1.5,0.6 -0.2,0.1 -0.3,0.3 -0.5,0.5 v 0.1 c 0.7,0 1.1,-0.4 1.6,-0.6 0.6,-0.4 1.2,-0.9 1.9,-1.2 0.1,-0.4 0.2,-0.7 0.3,-1.1 v -0.3 c 0.1,-0.3 0.3,-0.6 0.5,-1 0.1,-0.5 0.2,-1.4 0.1,-1.9 -0.2,-0.6 -0.2,-1 -0.2,-1.5 z m 2.1,1.7 v -0.1 c -0.1,0.3 0,0.8 -0.1,1.2 -0.2,0.7 -0.2,1.5 -0.4,2.3 0,0.2 0,0.4 -0.1,0.5 v 0.2 c 0,0.1 -0.1,0.9 -0.1,1 v 0.1 c 0.2,0 0.3,0 0.5,-0.1 0,-0.1 0.1,-0.3 0.1,-0.4 0.1,-0.1 0,-0.3 0,-0.4 0.2,-0.8 0.4,-2.1 0.2,-3.1 -0.1,-0.3 0,-1 -0.1,-1.2 z m 5.5,1.5 H 422 c -0.1,0.3 0.4,1 0.7,1.1 h 0.2 c 0,-0.5 -0.5,-1 -0.8,-1.1 z m 26.1,0.6 c 0,-0.1 0,-0.1 0,0 -0.1,-0.1 -0.2,-0.1 -0.3,-0.1 -0.1,0 -0.4,0.1 -0.6,0.2 -0.2,0.1 -0.5,0.2 -0.8,0.3 -0.1,0 -0.1,0.1 -0.2,0.1 -0.2,0.1 -0.4,0.1 -0.5,0.2 -0.4,0.2 -0.8,0.4 -1.2,0.7 -1,0.6 -2,1.3 -3,1.9 -0.4,0.3 -0.9,0.6 -1.3,0.9 -0.2,0.1 -0.5,0.2 -0.6,0.4 0.4,0 0.7,-0.2 0.9,-0.4 0.2,-0.1 0.4,-0.1 0.6,-0.2 0.1,0 0.2,-0.1 0.2,-0.1 1.5,-0.7 3,-1.2 4.5,-1.9 l 1.5,-0.6 c 0.1,-0.1 0.3,-0.1 0.4,-0.2 l 0.3,-0.3 c 0,-0.2 0.1,-0.4 0.1,-0.6 0,-0.1 0.1,-0.2 0,-0.3 z m -17.8,7.2 -0.3,-0.3 c -0.1,-0.4 0.2,-0.7 0,-1.2 -0.2,0 -0.5,0 -0.7,-0.1 -0.3,-0.1 -0.5,-0.3 -0.9,-0.3 -0.1,0.3 -0.3,0.8 -0.1,1.3 0.1,0.3 0.4,0.3 0.7,0.5 0.3,0.2 0.6,0.5 1,0.7 0.1,0 0.3,0.1 0.5,0.1 0.3,-0.1 0.4,-0.2 0.6,-0.4 0,-0.3 -0.2,-0.5 -0.3,-0.7 -0.1,0.1 -0.3,0.4 -0.5,0.4 z"
   stroke-linecap="round"
   id="path34" />
</g></g>
		
		
		
		
		
		
		
		
		
		
		
		
		
		
		
		
		
		
		
		
		
		
		
		
		
		
		
		
		
		
		
		
		
		
		
		
		
		
		
		
</g>
</g>
</svg>
